<svg width="10" height="18" viewBox="0 0 10 18" fill="none" xmlns="http://www.w3.org/2000/svg">
<path d="M0.25 8.94922C0.25 8.82552 0.272786 8.71159 0.318359 8.60742C0.363932 8.49674 0.432292 8.39583 0.523438 8.30469L8.26758 0.726562C8.44336 0.557292 8.65495 0.472656 8.90234 0.472656C9.07161 0.472656 9.22135 0.511719 9.35156 0.589844C9.48828 0.667969 9.5957 0.775391 9.67383 0.912109C9.75846 1.04232 9.80078 1.19206 9.80078 1.36133C9.80078 1.60221 9.71289 1.8138 9.53711 1.99609L2.42773 8.94922L9.53711 15.9023C9.71289 16.0846 9.80078 16.2962 9.80078 16.5371C9.80078 16.7064 9.75846 16.8561 9.67383 16.9863C9.5957 17.123 9.48828 17.2305 9.35156 17.3086C9.22135 17.3867 9.07161 17.4258 8.90234 17.4258C8.65495 17.4258 8.44336 17.3379 8.26758 17.1621L0.523438 9.59375C0.432292 9.5026 0.363932 9.40495 0.318359 9.30078C0.272786 9.1901 0.25 9.07292 0.25 8.94922Z" fill="white"/>
</svg>
