<svg width="20" height="22" viewBox="0 0 20 22" fill="none" xmlns="http://www.w3.org/2000/svg">
<path d="M5.66016 4.67383V2.48633C5.66016 1.7832 5.875 1.22982 6.30469 0.826172C6.74089 0.416016 7.33333 0.210938 8.08203 0.210938H11.793C12.5417 0.210938 13.1309 0.416016 13.5605 0.826172C13.9967 1.22982 14.2148 1.7832 14.2148 2.48633V4.67383H12.6621V2.58398C12.6621 2.31055 12.571 2.08919 12.3887 1.91992C12.2129 1.75065 11.9785 1.66602 11.6855 1.66602H8.18945C7.89648 1.66602 7.65885 1.75065 7.47656 1.91992C7.30078 2.08919 7.21289 2.31055 7.21289 2.58398V4.67383H5.66016ZM1.22656 5.45508C1.03125 5.45508 0.858724 5.38346 0.708984 5.24023C0.565755 5.09049 0.494141 4.91471 0.494141 4.71289C0.494141 4.51758 0.565755 4.34831 0.708984 4.20508C0.858724 4.05534 1.03125 3.98047 1.22656 3.98047H18.6777C18.873 3.98047 19.0423 4.05208 19.1855 4.19531C19.3288 4.33854 19.4004 4.51107 19.4004 4.71289C19.4004 4.91471 19.3288 5.09049 19.1855 5.24023C19.0488 5.38346 18.8796 5.45508 18.6777 5.45508H1.22656ZM5.47461 21.959C4.77148 21.959 4.20182 21.7507 3.76562 21.334C3.33594 20.9238 3.10482 20.3672 3.07227 19.6641L2.37891 5.26953H3.91211L4.60547 19.4883C4.61849 19.7747 4.7194 20.0124 4.9082 20.2012C5.09701 20.39 5.33138 20.4844 5.61133 20.4844H14.2734C14.5599 20.4844 14.7975 20.39 14.9863 20.2012C15.1751 20.0189 15.276 19.7812 15.2891 19.4883L15.9434 5.26953H17.5156L16.832 19.6543C16.7995 20.3574 16.5651 20.9173 16.1289 21.334C15.6927 21.7507 15.1263 21.959 14.4297 21.959H5.47461ZM7.05664 18.8145C6.87435 18.8145 6.72786 18.7624 6.61719 18.6582C6.50651 18.554 6.44792 18.4141 6.44141 18.2383L6.14844 7.79883C6.14193 7.62956 6.19401 7.49284 6.30469 7.38867C6.42188 7.27799 6.57161 7.22266 6.75391 7.22266C6.92969 7.22266 7.07292 7.27474 7.18359 7.37891C7.30078 7.48307 7.35938 7.61979 7.35938 7.78906L7.66211 18.2383C7.66211 18.4076 7.60677 18.5475 7.49609 18.6582C7.38542 18.7624 7.23893 18.8145 7.05664 18.8145ZM9.94727 18.8145C9.76497 18.8145 9.61523 18.7624 9.49805 18.6582C9.38086 18.5475 9.32227 18.4076 9.32227 18.2383V7.79883C9.32227 7.62956 9.38086 7.49284 9.49805 7.38867C9.61523 7.27799 9.76497 7.22266 9.94727 7.22266C10.1361 7.22266 10.2891 7.27799 10.4062 7.38867C10.5234 7.49284 10.582 7.62956 10.582 7.79883V18.2383C10.582 18.4076 10.5234 18.5475 10.4062 18.6582C10.2891 18.7624 10.1361 18.8145 9.94727 18.8145ZM12.8477 18.8145C12.6589 18.8145 12.5091 18.7624 12.3984 18.6582C12.2878 18.5475 12.2357 18.4076 12.2422 18.2383L12.5352 7.79883C12.5417 7.62305 12.6003 7.48307 12.7109 7.37891C12.8216 7.27474 12.9648 7.22266 13.1406 7.22266C13.3294 7.22266 13.4792 7.27799 13.5898 7.38867C13.7005 7.49284 13.7526 7.62956 13.7461 7.79883L13.4531 18.2383C13.4466 18.4141 13.388 18.554 13.2773 18.6582C13.1667 18.7624 13.0234 18.8145 12.8477 18.8145Z" fill="white"/>
</svg>
