<svg width="20" height="17" viewBox="0 0 20 17" fill="none" xmlns="http://www.w3.org/2000/svg">
<path d="M0 15.4803V3.05762C0 2.97828 0.0060033 2.90504 0.0180099 2.83791C0.0300165 2.77078 0.060033 2.69754 0.108059 2.6182C0.378208 2.14827 0.771424 1.71495 1.28771 1.31826C1.81 0.921558 2.42233 0.6042 3.12472 0.366182C3.83311 0.122061 4.60153 0 5.42999 0C6.40852 0 7.30002 0.180039 8.10446 0.540118C8.9149 0.894094 9.54825 1.35487 10.0045 1.92246C10.4548 1.35487 11.0821 0.894094 11.8865 0.540118C12.697 0.180039 13.5945 0 14.579 0C15.4015 0 16.1639 0.122061 16.8663 0.366182C17.5747 0.6042 18.19 0.921558 18.7123 1.31826C19.2346 1.71495 19.6278 2.14827 19.8919 2.6182C19.94 2.69754 19.97 2.77078 19.982 2.83791C19.994 2.90504 20 2.97828 20 3.05762V15.4803C20 15.8587 19.8979 16.1273 19.6938 16.2859C19.4897 16.4446 19.2556 16.524 18.9914 16.524C18.8354 16.524 18.6853 16.4843 18.5412 16.405C18.3971 16.3317 18.241 16.2402 18.0729 16.1303C17.5747 15.7885 17.0284 15.517 16.434 15.3156C15.8457 15.1203 15.2394 15.0257 14.615 15.0318C13.9607 15.0379 13.3213 15.163 12.697 15.4071C12.0786 15.6512 11.5173 16.0205 11.0131 16.5148C10.821 16.6979 10.6439 16.823 10.4818 16.8901C10.3257 16.9634 10.1666 17 10.0045 17C9.83641 17 9.67432 16.9634 9.51824 16.8901C9.36215 16.823 9.18505 16.6979 8.98694 16.5148C8.48267 16.0205 7.91836 15.6512 7.29401 15.4071C6.67567 15.163 6.04232 15.0379 5.39397 15.0318C4.76362 15.0257 4.15128 15.1203 3.55696 15.3156C2.96863 15.517 2.42533 15.7885 1.92706 16.1303C1.75897 16.2402 1.60288 16.3317 1.4588 16.405C1.31472 16.4843 1.16764 16.524 1.01756 16.524C0.747411 16.524 0.510281 16.4446 0.306168 16.2859C0.102056 16.1273 0 15.8587 0 15.4803ZM1.4498 14.7022C1.92406 14.3543 2.50938 14.0766 3.20576 13.8691C3.90215 13.6616 4.64355 13.5579 5.42999 13.5579C5.92826 13.5579 6.41453 13.6159 6.88879 13.7318C7.36305 13.8417 7.80129 13.9943 8.20351 14.1896C8.61174 14.3849 8.96893 14.6076 9.2751 14.8578V3.3231C8.95693 2.76162 8.44965 2.31305 7.75326 1.97738C7.05688 1.64172 6.28246 1.47388 5.42999 1.47388C4.87168 1.47388 4.33438 1.55017 3.8181 1.70275C3.30782 1.84922 2.84557 2.05672 2.43134 2.32526C2.01711 2.59379 1.68993 2.9081 1.4498 3.26817V14.7022ZM10.7249 14.8578C11.0311 14.6076 11.3883 14.3849 11.7965 14.1896C12.2047 13.9943 12.643 13.8417 13.1112 13.7318C13.5855 13.6159 14.0747 13.5579 14.579 13.5579C15.3594 13.5579 16.0979 13.6616 16.7942 13.8691C17.4906 14.0766 18.0759 14.3543 18.5502 14.7022V3.26817C18.3101 2.9081 17.9829 2.59379 17.5687 2.32526C17.1544 2.05672 16.6892 1.84922 16.1729 1.70275C15.6626 1.55017 15.1313 1.47388 14.579 1.47388C13.7205 1.47388 12.9431 1.64172 12.2467 1.97738C11.5504 2.31305 11.0431 2.76162 10.7249 3.3231V14.8578Z" fill="black"/>
</svg>
