<svg width="16" height="16" viewBox="0 0 16 16" fill="none" xmlns="http://www.w3.org/2000/svg">
<path d="M0.744363 15.4492C0.627175 15.3385 0.54905 15.2083 0.509988 15.0586C0.477435 14.9089 0.480691 14.7591 0.519753 14.6094C0.558816 14.4596 0.633685 14.3294 0.744363 14.2188L6.99436 7.95898L0.744363 1.70898C0.633685 1.59831 0.558816 1.4681 0.519753 1.31836C0.487201 1.16862 0.487201 1.01888 0.519753 0.869141C0.558816 0.719401 0.633685 0.589193 0.744363 0.478516C0.85504 0.361328 0.985248 0.286458 1.13499 0.253906C1.28473 0.214844 1.43447 0.214844 1.58421 0.253906C1.74046 0.286458 1.87392 0.361328 1.9846 0.478516L8.2346 6.72852L14.4846 0.478516C14.5953 0.361328 14.7255 0.286458 14.8752 0.253906C15.025 0.214844 15.1747 0.214844 15.3244 0.253906C15.4742 0.286458 15.6076 0.361328 15.7248 0.478516C15.8355 0.589193 15.9104 0.719401 15.9494 0.869141C15.9885 1.01888 15.9885 1.16862 15.9494 1.31836C15.9104 1.4681 15.8355 1.59831 15.7248 1.70898L9.47483 7.95898L15.7248 14.2188C15.8355 14.3294 15.9071 14.4596 15.9397 14.6094C15.9787 14.7591 15.9787 14.9089 15.9397 15.0586C15.9071 15.2083 15.8355 15.3385 15.7248 15.4492C15.6142 15.5664 15.4807 15.6413 15.3244 15.6738C15.1747 15.7129 15.025 15.7129 14.8752 15.6738C14.7255 15.6348 14.5953 15.5599 14.4846 15.4492L8.2346 9.19922L1.9846 15.4492C1.87392 15.5599 1.74371 15.6348 1.59397 15.6738C1.44423 15.7129 1.29449 15.7129 1.14475 15.6738C0.995014 15.6348 0.86155 15.5599 0.744363 15.4492Z" fill="white"/>
</svg>
