<svg width="11" height="18" viewBox="0 0 11 18" fill="none" xmlns="http://www.w3.org/2000/svg">
<path d="M10.291 8.94922C10.291 9.07292 10.265 9.1901 10.2129 9.30078C10.1673 9.40495 10.099 9.5026 10.0078 9.59375L2.27344 17.1621C2.09766 17.3379 1.88281 17.4258 1.62891 17.4258C1.46615 17.4258 1.31641 17.3867 1.17969 17.3086C1.04297 17.2305 0.935547 17.123 0.857422 16.9863C0.779297 16.8561 0.740234 16.7064 0.740234 16.5371C0.740234 16.2962 0.82487 16.0846 0.994141 15.9023L8.10352 8.94922L0.994141 1.99609C0.82487 1.8138 0.740234 1.60221 0.740234 1.36133C0.740234 1.19206 0.779297 1.04232 0.857422 0.912109C0.935547 0.775391 1.04297 0.667969 1.17969 0.589844C1.31641 0.511719 1.46615 0.472656 1.62891 0.472656C1.88281 0.472656 2.09766 0.557292 2.27344 0.726562L10.0078 8.30469C10.099 8.39583 10.1673 8.49674 10.2129 8.60742C10.265 8.71159 10.291 8.82552 10.291 8.94922Z" fill="white"/>
</svg>
