<svg width="20" height="20" viewBox="0 0 20 20" fill="none" xmlns="http://www.w3.org/2000/svg">
<path d="M2.17969 6.0918C1.64583 6.0918 1.22917 5.94206 0.929688 5.64258C0.636719 5.3431 0.490234 4.91667 0.490234 4.36328V2.2832C0.490234 1.73633 0.636719 1.31315 0.929688 1.01367C1.22917 0.707682 1.64583 0.554688 2.17969 0.554688H4.33789C4.87174 0.554688 5.28516 0.707682 5.57812 1.01367C5.8776 1.31315 6.02734 1.73633 6.02734 2.2832V4.36328C6.02734 4.91667 5.8776 5.3431 5.57812 5.64258C5.28516 5.94206 4.87174 6.0918 4.33789 6.0918H2.17969ZM2.36523 4.75391H4.15234C4.32161 4.75391 4.45182 4.70833 4.54297 4.61719C4.64062 4.52604 4.68945 4.38607 4.68945 4.19727V2.44922C4.68945 2.26693 4.64062 2.13021 4.54297 2.03906C4.45182 1.94792 4.32161 1.90234 4.15234 1.90234H2.36523C2.18945 1.90234 2.05599 1.94792 1.96484 2.03906C1.88021 2.13021 1.83789 2.26693 1.83789 2.44922V4.19727C1.83789 4.38607 1.88021 4.52604 1.96484 4.61719C2.05599 4.70833 2.18945 4.75391 2.36523 4.75391ZM8.97656 6.0918C8.44271 6.0918 8.0293 5.94206 7.73633 5.64258C7.44336 5.3431 7.29688 4.91667 7.29688 4.36328V2.2832C7.29688 1.73633 7.44336 1.31315 7.73633 1.01367C8.0293 0.707682 8.44271 0.554688 8.97656 0.554688H11.1445C11.6784 0.554688 12.0918 0.707682 12.3848 1.01367C12.6777 1.31315 12.8242 1.73633 12.8242 2.2832V4.36328C12.8242 4.91667 12.6777 5.3431 12.3848 5.64258C12.0918 5.94206 11.6784 6.0918 11.1445 6.0918H8.97656ZM9.16211 4.75391H10.959C11.1283 4.75391 11.2585 4.70833 11.3496 4.61719C11.4408 4.52604 11.4863 4.38607 11.4863 4.19727V2.44922C11.4863 2.26693 11.4408 2.13021 11.3496 2.03906C11.2585 1.94792 11.1283 1.90234 10.959 1.90234H9.16211C8.98633 1.90234 8.85286 1.94792 8.76172 2.03906C8.67708 2.13021 8.63477 2.26693 8.63477 2.44922V4.19727C8.63477 4.38607 8.67708 4.52604 8.76172 4.61719C8.85286 4.70833 8.98633 4.75391 9.16211 4.75391ZM15.793 6.0918C15.2591 6.0918 14.8424 5.94206 14.543 5.64258C14.25 5.3431 14.1035 4.91667 14.1035 4.36328V2.2832C14.1035 1.73633 14.25 1.31315 14.543 1.01367C14.8424 0.707682 15.2591 0.554688 15.793 0.554688H17.9512C18.485 0.554688 18.8984 0.707682 19.1914 1.01367C19.4909 1.31315 19.6406 1.73633 19.6406 2.2832V4.36328C19.6406 4.91667 19.4909 5.3431 19.1914 5.64258C18.8984 5.94206 18.485 6.0918 17.9512 6.0918H15.793ZM15.9785 4.75391H17.7656C17.9349 4.75391 18.0651 4.70833 18.1562 4.61719C18.2474 4.52604 18.293 4.38607 18.293 4.19727V2.44922C18.293 2.26693 18.2474 2.13021 18.1562 2.03906C18.0651 1.94792 17.9349 1.90234 17.7656 1.90234H15.9785C15.8027 1.90234 15.6693 1.94792 15.5781 2.03906C15.487 2.13021 15.4414 2.26693 15.4414 2.44922V4.19727C15.4414 4.38607 15.487 4.52604 15.5781 4.61719C15.6693 4.70833 15.8027 4.75391 15.9785 4.75391ZM2.17969 12.7031C1.64583 12.7031 1.22917 12.5534 0.929688 12.2539C0.636719 11.9544 0.490234 11.5312 0.490234 10.9844V8.89453C0.490234 8.34115 0.636719 7.91471 0.929688 7.61523C1.22917 7.31576 1.64583 7.16602 2.17969 7.16602H4.33789C4.87174 7.16602 5.28516 7.31576 5.57812 7.61523C5.8776 7.91471 6.02734 8.34115 6.02734 8.89453V10.9844C6.02734 11.5312 5.8776 11.9544 5.57812 12.2539C5.28516 12.5534 4.87174 12.7031 4.33789 12.7031H2.17969ZM2.36523 11.3652H4.15234C4.32161 11.3652 4.45182 11.3197 4.54297 11.2285C4.64062 11.1309 4.68945 10.9909 4.68945 10.8086V9.05078C4.68945 8.875 4.64062 8.74154 4.54297 8.65039C4.45182 8.55273 4.32161 8.50391 4.15234 8.50391H2.36523C2.18945 8.50391 2.05599 8.55273 1.96484 8.65039C1.88021 8.74154 1.83789 8.875 1.83789 9.05078V10.8086C1.83789 10.9909 1.88021 11.1309 1.96484 11.2285C2.05599 11.3197 2.18945 11.3652 2.36523 11.3652ZM8.97656 12.7031C8.44271 12.7031 8.0293 12.5534 7.73633 12.2539C7.44336 11.9544 7.29688 11.5312 7.29688 10.9844V8.89453C7.29688 8.34115 7.44336 7.91471 7.73633 7.61523C8.0293 7.31576 8.44271 7.16602 8.97656 7.16602H11.1445C11.6784 7.16602 12.0918 7.31576 12.3848 7.61523C12.6777 7.91471 12.8242 8.34115 12.8242 8.89453V10.9844C12.8242 11.5312 12.6777 11.9544 12.3848 12.2539C12.0918 12.5534 11.6784 12.7031 11.1445 12.7031H8.97656ZM9.16211 11.3652H10.959C11.1283 11.3652 11.2585 11.3197 11.3496 11.2285C11.4408 11.1309 11.4863 10.9909 11.4863 10.8086V9.05078C11.4863 8.875 11.4408 8.74154 11.3496 8.65039C11.2585 8.55273 11.1283 8.50391 10.959 8.50391H9.16211C8.98633 8.50391 8.85286 8.55273 8.76172 8.65039C8.67708 8.74154 8.63477 8.875 8.63477 9.05078V10.8086C8.63477 10.9909 8.67708 11.1309 8.76172 11.2285C8.85286 11.3197 8.98633 11.3652 9.16211 11.3652ZM15.793 12.7031C15.2591 12.7031 14.8424 12.5534 14.543 12.2539C14.25 11.9544 14.1035 11.5312 14.1035 10.9844V8.89453C14.1035 8.34115 14.25 7.91471 14.543 7.61523C14.8424 7.31576 15.2591 7.16602 15.793 7.16602H17.9512C18.485 7.16602 18.8984 7.31576 19.1914 7.61523C19.4909 7.91471 19.6406 8.34115 19.6406 8.89453V10.9844C19.6406 11.5312 19.4909 11.9544 19.1914 12.2539C18.8984 12.5534 18.485 12.7031 17.9512 12.7031H15.793ZM15.9785 11.3652H17.7656C17.9349 11.3652 18.0651 11.3197 18.1562 11.2285C18.2474 11.1309 18.293 10.9909 18.293 10.8086V9.05078C18.293 8.875 18.2474 8.74154 18.1562 8.65039C18.0651 8.55273 17.9349 8.50391 17.7656 8.50391H15.9785C15.8027 8.50391 15.6693 8.55273 15.5781 8.65039C15.487 8.74154 15.4414 8.875 15.4414 9.05078V10.8086C15.4414 10.9909 15.487 11.1309 15.5781 11.2285C15.6693 11.3197 15.8027 11.3652 15.9785 11.3652ZM2.17969 19.3145C1.64583 19.3145 1.22917 19.1647 0.929688 18.8652C0.636719 18.5658 0.490234 18.1393 0.490234 17.5859V15.5059C0.490234 14.9525 0.636719 14.526 0.929688 14.2266C1.22917 13.9271 1.64583 13.7773 2.17969 13.7773H4.33789C4.87174 13.7773 5.28516 13.9271 5.57812 14.2266C5.8776 14.526 6.02734 14.9525 6.02734 15.5059V17.5859C6.02734 18.1393 5.8776 18.5658 5.57812 18.8652C5.28516 19.1647 4.87174 19.3145 4.33789 19.3145H2.17969ZM2.36523 17.9668H4.15234C4.32161 17.9668 4.45182 17.9212 4.54297 17.8301C4.64062 17.7389 4.68945 17.6022 4.68945 17.4199V15.6719C4.68945 15.4831 4.64062 15.3431 4.54297 15.252C4.45182 15.1608 4.32161 15.1152 4.15234 15.1152H2.36523C2.18945 15.1152 2.05599 15.1608 1.96484 15.252C1.88021 15.3431 1.83789 15.4831 1.83789 15.6719V17.4199C1.83789 17.6022 1.88021 17.7389 1.96484 17.8301C2.05599 17.9212 2.18945 17.9668 2.36523 17.9668ZM8.97656 19.3145C8.44271 19.3145 8.0293 19.1647 7.73633 18.8652C7.44336 18.5658 7.29688 18.1393 7.29688 17.5859V15.5059C7.29688 14.9525 7.44336 14.526 7.73633 14.2266C8.0293 13.9271 8.44271 13.7773 8.97656 13.7773H11.1445C11.6784 13.7773 12.0918 13.9271 12.3848 14.2266C12.6777 14.526 12.8242 14.9525 12.8242 15.5059V17.5859C12.8242 18.1393 12.6777 18.5658 12.3848 18.8652C12.0918 19.1647 11.6784 19.3145 11.1445 19.3145H8.97656ZM9.16211 17.9668H10.959C11.1283 17.9668 11.2585 17.9212 11.3496 17.8301C11.4408 17.7389 11.4863 17.6022 11.4863 17.4199V15.6719C11.4863 15.4831 11.4408 15.3431 11.3496 15.252C11.2585 15.1608 11.1283 15.1152 10.959 15.1152H9.16211C8.98633 15.1152 8.85286 15.1608 8.76172 15.252C8.67708 15.3431 8.63477 15.4831 8.63477 15.6719V17.4199C8.63477 17.6022 8.67708 17.7389 8.76172 17.8301C8.85286 17.9212 8.98633 17.9668 9.16211 17.9668ZM15.793 19.3145C15.2591 19.3145 14.8424 19.1647 14.543 18.8652C14.25 18.5658 14.1035 18.1393 14.1035 17.5859V15.5059C14.1035 14.9525 14.25 14.526 14.543 14.2266C14.8424 13.9271 15.2591 13.7773 15.793 13.7773H17.9512C18.485 13.7773 18.8984 13.9271 19.1914 14.2266C19.4909 14.526 19.6406 14.9525 19.6406 15.5059V17.5859C19.6406 18.1393 19.4909 18.5658 19.1914 18.8652C18.8984 19.1647 18.485 19.3145 17.9512 19.3145H15.793ZM15.9785 17.9668H17.7656C17.9349 17.9668 18.0651 17.9212 18.1562 17.8301C18.2474 17.7389 18.293 17.6022 18.293 17.4199V15.6719C18.293 15.4831 18.2474 15.3431 18.1562 15.252C18.0651 15.1608 17.9349 15.1152 17.7656 15.1152H15.9785C15.8027 15.1152 15.6693 15.1608 15.5781 15.252C15.487 15.3431 15.4414 15.4831 15.4414 15.6719V17.4199C15.4414 17.6022 15.487 17.7389 15.5781 17.8301C15.6693 17.9212 15.8027 17.9668 15.9785 17.9668Z" fill="white"/>
</svg>
