<svg width="21" height="16" viewBox="0 0 21 16" fill="none" xmlns="http://www.w3.org/2000/svg">
<path d="M6.03711 2.8418C5.81576 2.8418 5.62695 2.76693 5.4707 2.61719C5.32096 2.46745 5.24609 2.2819 5.24609 2.06055C5.24609 1.83919 5.32096 1.65365 5.4707 1.50391C5.62695 1.34766 5.81576 1.26953 6.03711 1.26953H19.377C19.5983 1.26953 19.7839 1.34766 19.9336 1.50391C20.0898 1.65365 20.168 1.83919 20.168 2.06055C20.168 2.2819 20.0898 2.46745 19.9336 2.61719C19.7839 2.76693 19.5983 2.8418 19.377 2.8418H6.03711ZM6.03711 8.75C5.81576 8.75 5.62695 8.67513 5.4707 8.52539C5.32096 8.36914 5.24609 8.18034 5.24609 7.95898C5.24609 7.73763 5.32096 7.55208 5.4707 7.40234C5.62695 7.2526 5.81576 7.17773 6.03711 7.17773H19.377C19.5983 7.17773 19.7839 7.2526 19.9336 7.40234C20.0898 7.55208 20.168 7.73763 20.168 7.95898C20.168 8.18034 20.0898 8.36914 19.9336 8.52539C19.7839 8.67513 19.5983 8.75 19.377 8.75H6.03711ZM6.03711 14.6484C5.81576 14.6484 5.62695 14.5736 5.4707 14.4238C5.32096 14.2741 5.24609 14.0885 5.24609 13.8672C5.24609 13.6458 5.32096 13.4603 5.4707 13.3105C5.62695 13.1543 5.81576 13.0762 6.03711 13.0762H19.377C19.5983 13.0762 19.7839 13.1543 19.9336 13.3105C20.0898 13.4603 20.168 13.6458 20.168 13.8672C20.168 14.0885 20.0898 14.2741 19.9336 14.4238C19.7839 14.5736 19.5983 14.6484 19.377 14.6484H6.03711ZM1.7207 3.28125C1.38216 3.28125 1.09245 3.16406 0.851562 2.92969C0.610677 2.6888 0.490234 2.39909 0.490234 2.06055C0.490234 1.71549 0.610677 1.42578 0.851562 1.19141C1.09245 0.950521 1.38216 0.830078 1.7207 0.830078C2.05924 0.830078 2.34896 0.950521 2.58984 1.19141C2.83073 1.42578 2.95117 1.71549 2.95117 2.06055C2.95117 2.39909 2.83073 2.6888 2.58984 2.92969C2.34896 3.16406 2.05924 3.28125 1.7207 3.28125ZM1.7207 9.18945C1.38216 9.18945 1.09245 9.06901 0.851562 8.82812C0.610677 8.58724 0.490234 8.29753 0.490234 7.95898C0.490234 7.62044 0.610677 7.33073 0.851562 7.08984C1.09245 6.84896 1.38216 6.72852 1.7207 6.72852C2.05924 6.72852 2.34896 6.84896 2.58984 7.08984C2.83073 7.33073 2.95117 7.62044 2.95117 7.95898C2.95117 8.29753 2.83073 8.58724 2.58984 8.82812C2.34896 9.06901 2.05924 9.18945 1.7207 9.18945ZM1.7207 15.0977C1.38216 15.0977 1.09245 14.9772 0.851562 14.7363C0.610677 14.4954 0.490234 14.2057 0.490234 13.8672C0.490234 13.5221 0.610677 13.2324 0.851562 12.998C1.09245 12.7572 1.38216 12.6367 1.7207 12.6367C2.05924 12.6367 2.34896 12.7572 2.58984 12.998C2.83073 13.2324 2.95117 13.5221 2.95117 13.8672C2.95117 14.2057 2.83073 14.4954 2.58984 14.7363C2.34896 14.9772 2.05924 15.0977 1.7207 15.0977Z" fill="white"/>
</svg>
